<?xml version="1.0" encoding="UTF-8" standalone="no"?>
<!-- Created with Inkscape (http://www.inkscape.org/) -->
<svg
   xmlns:dc="http://purl.org/dc/elements/1.1/"
   xmlns:cc="http://creativecommons.org/ns#"
   xmlns:rdf="http://www.w3.org/1999/02/22-rdf-syntax-ns#"
   xmlns:svg="http://www.w3.org/2000/svg"
   xmlns="http://www.w3.org/2000/svg"
   xmlns:sodipodi="http://sodipodi.sourceforge.net/DTD/sodipodi-0.dtd"
   xmlns:inkscape="http://www.inkscape.org/namespaces/inkscape"
   version="1.0"
   width="48"
   height="48"
   id="svg5921"
   sodipodi:version="0.32"
   inkscape:version="0.46"
   sodipodi:docname="note.svg"
   inkscape:output_extension="org.inkscape.output.svg.inkscape"
   inkscape:export-filename="/home/jfearn/Build/src/fedora/publican/trunk/publican-fedora/en-US/images/note.png"
   inkscape:export-xdpi="111.32"
   inkscape:export-ydpi="111.32">
  <metadata
     id="metadata16">
    <rdf:RDF>
      <cc:Work
         rdf:about="">
        <dc:format>image/svg+xml</dc:format>
        <dc:type
           rdf:resource="http://purl.org/dc/dcmitype/StillImage" />
      </cc:Work>
    </rdf:RDF>
  </metadata>
  <sodipodi:namedview
     inkscape:window-height="1024"
     inkscape:window-width="1205"
     inkscape:pageshadow="2"
     inkscape:pageopacity="0.0"
     guidetolerance="10.0"
     gridtolerance="10.0"
     objecttolerance="10.0"
     borderopacity="1.0"
     bordercolor="#666666"
     pagecolor="#ffffff"
     id="base"
     showgrid="false"
     inkscape:zoom="11.5"
     inkscape:cx="22.217181"
     inkscape:cy="20"
     inkscape:window-x="334"
     inkscape:window-y="51"
     inkscape:current-layer="svg5921" />
  <defs
     id="defs5923">
    <inkscape:perspective
       sodipodi:type="inkscape:persp3d"
       inkscape:vp_x="0 : 20 : 1"
       inkscape:vp_y="0 : 1000 : 0"
       inkscape:vp_z="40 : 20 : 1"
       inkscape:persp3d-origin="20 : 13.333333 : 1"
       id="perspective18" />
  </defs>
  <g
     transform="matrix(0.468275,0,0,0.468275,-5.7626904,-7.4142703)"
     id="layer1">
    <g
       transform="matrix(0.115136,0,0,0.115136,9.7283,21.77356)"
       id="g8014"
       style="enable-background:new">
      <g
         id="g8518"
         style="opacity:1">
        <path
           d="M -2512.4524,56.33197 L 3090.4719,56.33197 L 3090.4719,4607.3813 L -2512.4524,4607.3813 L -2512.4524,56.33197 z"
           transform="matrix(0.1104659,-2.3734892e-2,2.2163258e-2,0.1031513,308.46782,74.820675)"
           id="rect8018"
           style="fill:#ffe680;fill-opacity:1;fill-rule:nonzero;stroke:none;stroke-width:0.1;stroke-linecap:butt;stroke-miterlimit:4;stroke-dashoffset:0;stroke-opacity:1" />
      </g>
      <g
         transform="matrix(0.5141653,-7.1944682e-2,7.1944682e-2,0.5141653,146.04015,-82.639785)"
         id="g8020">
        <path
           d="M 511.14114,441.25315 C 527.3248,533.52772 464.31248,622.82928 370.39916,640.71378 C 276.48584,658.59828 187.23462,598.29322 171.05095,506.01865 C 154.86728,413.74408 217.8796,324.44253 311.79292,306.55803 C 405.70624,288.67353 494.95747,348.97858 511.14114,441.25315 z"
           id="path8022"
           style="opacity:1;fill:#e0c96f;fill-opacity:1;fill-rule:nonzero;stroke:none;stroke-width:0.0804934;stroke-linecap:butt;stroke-miterlimit:4;stroke-dasharray:none;stroke-dashoffset:0;stroke-opacity:1" />
        <path
           d="M 527.8214,393.1416 C 527.8214,461.31268 472.55783,516.57625 404.38675,516.57625 C 336.21567,516.57625 280.9521,461.31268 280.9521,393.1416 C 280.9521,324.97052 336.21567,269.70695 404.38675,269.70695 C 472.55783,269.70695 527.8214,324.97052 527.8214,393.1416 z"
           transform="matrix(1.2585415,-0.2300055,0.2168789,1.1867072,-248.76141,68.254424)"
           id="path8024"
           style="opacity:1;fill:#c00000;fill-opacity:1;fill-rule:nonzero;stroke:none;stroke-width:0.0804934;stroke-linecap:butt;stroke-miterlimit:4;stroke-dasharray:none;stroke-dashoffset:0;stroke-opacity:1" />
        <path
           d="M 358.5625,281.15625 C 348.09597,281.05155 337.43773,281.94729 326.71875,283.90625 C 240.96686,299.57789 183.37901,377.92385 198.15625,458.78125 C 209.70749,521.98673 262.12957,567.92122 325.40625,577.5625 L 357.25,433.6875 L 509.34375,405.875 C 509.14405,404.58166 509.0804,403.29487 508.84375,402 C 495.91366,331.24978 431.82821,281.88918 358.5625,281.15625 z"
           id="path8026"
           style="opacity:1;fill:#b60000;fill-opacity:1;fill-rule:nonzero;stroke:none;stroke-width:0.1;stroke-linecap:butt;stroke-miterlimit:4;stroke-dasharray:none;stroke-dashoffset:0;stroke-opacity:1" />
        <path
           d="M 294.2107,361.9442 L 282.79367,370.38482 L 261.73414,386.13346 C 253.13706,404.40842 254.3359,423.7989 259.7176,444.39774 C 273.6797,497.83861 313.42636,523.96124 369.50989,517.58957 C 398.21848,514.32797 424.51832,504.67345 440.64696,484.15958 L 469.89512,447.48298 L 294.2107,361.9442 z"
           id="path8028"
           style="fill:#750000;fill-opacity:1;fill-rule:nonzero;stroke:none;stroke-width:0.09999999;stroke-linecap:butt;stroke-miterlimit:4;stroke-dashoffset:0;stroke-opacity:1" />
        <path
           d="M 527.8214,393.1416 C 527.8214,461.31268 472.55783,516.57625 404.38675,516.57625 C 336.21567,516.57625 280.9521,461.31268 280.9521,393.1416 C 280.9521,324.97052 336.21567,269.70695 404.38675,269.70695 C 472.55783,269.70695 527.8214,324.97052 527.8214,393.1416 z"
           transform="matrix(0.9837071,-0.1797787,0.1695165,0.9275553,-78.013985,79.234385)"
           id="path8030"
           style="opacity:1;fill:#d40000;fill-opacity:1;fill-rule:nonzero;stroke:none;stroke-width:0.10298239;stroke-linecap:butt;stroke-miterlimit:4;stroke-dasharray:none;stroke-dashoffset:0;stroke-opacity:1" />
        <path
           d="M 527.8214,393.1416 C 527.8214,461.31268 472.55783,516.57625 404.38675,516.57625 C 336.21567,516.57625 280.9521,461.31268 280.9521,393.1416 C 280.9521,324.97052 336.21567,269.70695 404.38675,269.70695 C 472.55783,269.70695 527.8214,324.97052 527.8214,393.1416 z"
           transform="matrix(0.9837071,-0.1797787,0.1695165,0.9275553,-69.306684,71.273294)"
           id="path8032"
           style="opacity:1;fill:#e11212;fill-opacity:1;fill-rule:nonzero;stroke:none;stroke-width:0.10298239;stroke-linecap:butt;stroke-miterlimit:4;stroke-dasharray:none;stroke-dashoffset:0;stroke-opacity:1" />
      </g>
    </g>
  </g>
</svg>
